<?xml version="1.0" encoding="UTF-8"?>
<svg version="1.1" xmlns="http://www.w3.org/2000/svg" width="500" height="500">
<path d="M0 0 C165 0 330 0 500 0 C500 165 500 330 500 500 C335 500 170 500 0 500 C0 335 0 170 0 0 Z " fill="#012778" transform="translate(0,0)"/>
<path d="M0 0 C1.875 1.125 1.875 1.125 3 3 C3.3125 6.0625 3.3125 6.0625 3 9 C2.34 9.66 1.68 10.32 1 11 C0.66654678 14.19843152 0.66654678 14.19843152 0.68115234 18.02001953 C0.67110672 18.74207581 0.6610611 19.46413208 0.65071106 20.20806885 C0.61976928 22.59964181 0.60281374 24.99110229 0.5859375 27.3828125 C0.56723466 29.03906225 0.54766192 30.69530239 0.5272522 32.35153198 C0.47583145 36.71460309 0.43625914 41.07770512 0.39910889 45.44091797 C0.35913138 49.89168002 0.3080106 54.34231232 0.2578125 58.79296875 C0.16093557 67.52855734 0.07656868 76.26420992 0 85 C0.90199883 84.97641167 0.90199883 84.97641167 1.82221985 84.9523468 C2.61992294 84.94011581 3.41762604 84.92788483 4.23950195 84.9152832 C5.0264595 84.89955765 5.81341705 84.88383209 6.6242218 84.86763 C10.51963864 85.08466891 13.69704392 86.54272899 17.1875 88.1875 C17.85974609 88.47947266 18.53199219 88.77144531 19.22460938 89.07226562 C23.79058443 91.13962531 27.27725087 93.64778889 31 97 C34.61164222 95.46734026 36.95657543 93.31374795 39.73681641 90.56958008 C40.67103424 89.65134964 41.60525208 88.7331192 42.56777954 87.7870636 C43.57951919 86.78170095 44.59076832 85.77584447 45.6015625 84.76953125 C46.64473229 83.73533325 47.68797683 82.70121065 48.73129272 81.66716003 C50.91541253 79.4995132 53.09511449 77.32752531 55.27246094 75.15307617 C58.05598588 72.37493326 60.85529658 69.613303 63.65886879 66.85541248 C65.81898723 64.72511412 67.96768882 62.58357293 70.11344528 60.43881798 C71.14035459 59.41610109 72.17136558 58.39748489 73.20659256 57.38318825 C74.65689795 55.95989355 76.08980706 54.5189387 77.52197266 53.07739258 C78.34041656 52.26401932 79.15886047 51.45064606 80.00210571 50.61262512 C82.36934393 47.51701287 83.09650024 44.76219883 84 41 C85.1875 39 85.1875 39 87 38 C90.5625 38.125 90.5625 38.125 94 39 C96 42 96 42 95.75 45.0625 C95 48 95 48 93 50 C91.91291245 50.27379486 90.82582489 50.54758972 89.70579529 50.8296814 C85.52984582 52.1484783 83.76045193 53.63226947 80.70727539 56.72509766 C80.22832825 57.20331467 79.7493811 57.68153168 79.25592041 58.17424011 C77.69100286 59.7426142 76.14450465 61.32788211 74.59765625 62.9140625 C73.51016733 64.01088641 72.42156209 65.10660452 71.33189392 66.20126343 C68.47830447 69.07386844 65.64005559 71.96117161 62.80480957 74.85186768 C59.90443242 77.80355466 56.98970272 80.74099371 54.07617188 83.6796875 C48.37002349 89.43932746 42.68001291 95.21458479 37 101 C38.47784694 104.01422246 40.12738907 106.79698954 41.9375 109.625 C44.79904443 114.3336049 48 120.30836146 48 126 C46.02 126 44.04 126 42 126 C41.49210938 124.92621094 40.98421875 123.85242188 40.4609375 122.74609375 C33.87588322 109.03701787 27.42440361 99.84752737 12.5625 94.125 C10.7990625 93.568125 10.7990625 93.568125 9 93 C8.4328125 92.81824219 7.865625 92.63648438 7.28125 92.44921875 C-5.23439969 89.98466444 -17.00675168 92.08895701 -27.75 98.8125 C-37.26794747 105.61588135 -44.47169192 114.36978283 -47 126 C-48.98 126 -50.96 126 -53 126 C-52.66239646 117.0535061 -48.43391916 109.96322575 -43 103 C-44.54340843 99.34628511 -46.74851153 96.98077029 -49.5222168 94.17138672 C-49.97943619 93.70584381 -50.43665558 93.2403009 -50.9077301 92.76065063 C-52.41614424 91.22820419 -53.93205137 89.70346551 -55.44921875 88.1796875 C-56.50583717 87.11409765 -57.56238002 86.04843286 -58.61885071 84.98269653 C-60.83357524 82.75149786 -63.0526427 80.52471728 -65.27416992 78.30029297 C-68.11284356 75.45623709 -70.93501222 72.59638755 -73.75343609 69.73228264 C-75.93005929 67.5258433 -78.11792325 65.33081508 -80.30900002 63.13873672 C-81.35404486 62.08949871 -82.39498785 61.0361579 -83.43161583 59.97860336 C-84.88636954 58.49684105 -86.35628303 57.03187559 -87.83081055 55.56982422 C-88.6619487 54.73361542 -89.49308685 53.89740662 -90.34941101 53.03585815 C-93.45731354 50.64874769 -96.21848255 49.9068916 -100 49 C-101 48 -101 48 -101.25 44.625 C-101 41 -101 41 -99.9375 39 C-96.77203476 37.36621149 -94.34979714 38.14732436 -91 39 C-89 42 -89 42 -88.1703186 44.86380005 C-86.78787683 48.56844407 -85.07789264 50.40495754 -82.27490234 53.17919922 C-81.79668533 53.65800034 -81.31846832 54.13680145 -80.82575989 54.63011169 C-79.25511934 56.19798301 -77.67082969 57.75123535 -76.0859375 59.3046875 C-74.98933172 60.39382677 -73.89361034 61.48385716 -72.79873657 62.57473755 C-69.92396408 65.43428611 -67.03738124 68.2816148 -64.14813232 71.12652588 C-61.1982669 74.03536877 -58.25978571 76.95566248 -55.3203125 79.875 C-49.55792661 85.59457223 -43.78300749 91.30127926 -38 97 C-37.2682959 96.52224121 -36.5365918 96.04448242 -35.78271484 95.55224609 C-34.81027832 94.92398926 -33.8378418 94.29573242 -32.8359375 93.6484375 C-31.8773584 93.02630371 -30.9187793 92.40416992 -29.93115234 91.76318359 C-21.86516606 86.91123016 -14.35865658 84.93010814 -5 85 C-5.06116641 75.53359184 -5.13823979 66.0674867 -5.23571491 56.60138226 C-5.28047318 52.20603449 -5.31971706 47.81078059 -5.34643555 43.4152832 C-5.3724144 39.174634 -5.41277776 34.93434495 -5.46318626 30.69391823 C-5.4798918 29.07482184 -5.49138308 27.45566311 -5.49761391 25.83649254 C-5.50721531 23.57119217 -5.53522486 21.30682086 -5.56762695 19.04174805 C-5.57873001 17.75157272 -5.58983307 16.4613974 -5.60127258 15.13212585 C-6.03358579 11.73617331 -6.47731169 11.10287906 -9 9 C-9.39365568 5.85075452 -9.52854531 3.88090884 -7.875 1.125 C-5.11909116 -0.52854531 -3.14924548 -0.39365568 0 0 Z " fill="#B2E8F3" transform="translate(253,175)"/>
<path d="M0 0 C1.875 1.125 1.875 1.125 3 3 C3.3125 6.0625 3.3125 6.0625 3 9 C2.34 9.66 1.68 10.32 1 11 C0.75393985 14.00886724 0.62619218 16.93217752 0.5859375 19.9453125 C0.56657135 20.8303244 0.5472052 21.7153363 0.5272522 22.62716675 C0.46737277 25.45967916 0.42103787 28.29223203 0.375 31.125 C0.33682789 33.04298668 0.29777662 34.96095607 0.2578125 36.87890625 C0.16166445 41.58579748 0.07766458 46.29276896 0 51 C0.94576904 51.15130371 0.94576904 51.15130371 1.91064453 51.30566406 C8.59033959 52.48864446 13.8690356 54.60105148 19.8046875 57.78515625 C23.19572343 59.6769343 23.19572343 59.6769343 26.87304688 59.39038086 C31.44937577 56.39885273 35.15859006 52.25330551 39.01855469 48.40698242 C40.6146937 46.82272955 42.22852082 45.25811265 43.84375 43.69335938 C44.86833541 42.67824064 45.89181033 41.66199959 46.9140625 40.64453125 C47.8417041 39.73034424 48.7693457 38.81615723 49.72509766 37.87426758 C52.28470797 34.64028044 53.02152076 31.96689572 54 28 C56 26 56 26 59.4375 25.625 C63 26 63 26 64.9375 27.6875 C66.23951875 30.52130552 66.69063849 31.9304956 66 35 C63.33422489 37.16981695 60.97199503 38.6937606 57.68383789 39.72973633 C53.93397319 41.50455176 51.57374558 44.1494699 48.74609375 47.13671875 C47.55037868 48.36547621 46.35440753 49.59398452 45.15820312 50.82226562 C43.28853658 52.76047593 41.42313139 54.70253849 39.56274414 56.6496582 C37.75955848 58.53104747 35.94145118 60.39696197 34.12109375 62.26171875 C33.56683212 62.85119797 33.0125705 63.44067719 32.44151306 64.04801941 C30.85327148 65.66674805 30.85327148 65.66674805 28 68 C23.2017889 67.39597338 18.91367818 64.43992861 14.72265625 62.14648438 C8.13213048 58.70935107 1.15512925 56.88722707 -6 55 C-6.00808685 54.45320587 -6.01617371 53.90641174 -6.02450562 53.3430481 C-6.11038769 47.66546886 -6.20988325 41.9882454 -6.31738281 36.31103516 C-6.35572842 34.1906531 -6.39057133 32.07020474 -6.421875 29.94970703 C-6.46740466 26.90633402 -6.52541839 23.86341968 -6.5859375 20.8203125 C-6.59748871 19.86818878 -6.60903992 18.91606506 -6.62094116 17.93508911 C-6.64081085 17.05432709 -6.66068054 16.17356506 -6.68115234 15.26611328 C-6.69447601 14.48889923 -6.70779968 13.71168518 -6.7215271 12.91091919 C-6.84039576 10.7611053 -6.84039576 10.7611053 -9 9 C-9.33015665 5.89652746 -9.50531294 3.84218824 -7.875 1.125 C-5.11909116 -0.52854531 -3.14924548 -0.39365568 0 0 Z " fill="#1BC7F2" transform="translate(266,186)"/>
<path d="M0 0 C3.0625 0.3125 3.0625 0.3125 5 1.375 C6.7115104 4.49598955 5.85541991 6.95783884 5.0625 10.3125 C3.0625 12.3125 3.0625 12.3125 -0.17797852 13.08349609 C-4.55553196 14.51453733 -6.99513264 16.7254758 -10.08984375 19.9765625 C-10.63484024 20.52863373 -11.17983673 21.08070496 -11.74134827 21.64950562 C-13.46474993 23.40070483 -15.16986225 25.16853099 -16.875 26.9375 C-18.04635674 28.13395839 -19.2188721 29.32928363 -20.39257812 30.5234375 C-23.25445427 33.44018833 -26.10006659 36.3719737 -28.9375 39.3125 C-28.38320313 40.42367187 -27.82890625 41.53484375 -27.2578125 42.6796875 C-26.52543668 44.18199688 -25.79370014 45.68461804 -25.0625 47.1875 C-24.69769531 47.91453125 -24.33289063 48.6415625 -23.95703125 49.390625 C-21.28900792 54.92070972 -19.88672535 60.25425539 -18.9375 66.3125 C-13.41961662 66.21910525 -7.90217935 66.11304369 -2.38476562 65.99511719 C-0.50690424 65.95678023 1.37103176 65.92193573 3.24902344 65.890625 C5.94493321 65.84507637 8.64032712 65.78706625 11.3359375 65.7265625 C12.17869232 65.71501129 13.02144714 65.70346008 13.88973999 65.69155884 C18.45270957 65.77056819 18.45270957 65.77056819 22.0625 63.3125 C28.03966895 62.769121 28.03966895 62.769121 31.0625 64.375 C32.67897822 67.50692656 31.84915296 69.98435286 31.0625 73.3125 C29.0625 75.3125 29.0625 75.3125 25.5625 75.5625 C22.0625 75.3125 22.0625 75.3125 20.0625 73.3125 C18.1256387 72.9831462 18.1256387 72.9831462 15.88818359 72.99365234 C15.02744232 72.97378265 14.16670105 72.95391296 13.27987671 72.93344116 C12.34962677 72.92188995 11.41937683 72.91033875 10.4609375 72.8984375 C9.50933746 72.87907135 8.55773743 72.8597052 7.57730103 72.8397522 C4.53079253 72.77985868 1.48424646 72.73353205 -1.5625 72.6875 C-3.6250167 72.64932921 -5.6875173 72.61027802 -7.75 72.5703125 C-12.81236966 72.47414914 -17.87481395 72.39015437 -22.9375 72.3125 C-23.25493164 71.17014893 -23.57236328 70.02779785 -23.89941406 68.85083008 C-24.33358174 67.32361595 -24.76817482 65.79652271 -25.203125 64.26953125 C-25.41018066 63.51998169 -25.61723633 62.77043213 -25.83056641 61.99816895 C-27.61733426 55.77650843 -30.19440005 50.53502404 -33.484375 44.94921875 C-34.7933206 42.57411585 -35.60596401 40.97533229 -35.9375 38.3125 C-33.95184295 35.94161508 -32.00854088 33.92381958 -29.76171875 31.82421875 C-29.12136185 31.20279495 -28.48100494 30.58137115 -27.82124329 29.94111633 C-25.07685488 27.27852726 -22.30429184 24.64598933 -19.53344727 22.01098633 C-17.51587186 20.08415286 -15.51367832 18.14225152 -13.51171875 16.19921875 C-12.88456467 15.61355637 -12.25741058 15.02789398 -11.61125183 14.42448425 C-7.60484247 10.53144265 -6.15277641 7.74904423 -4.9375 2.3125 C-2.9375 0.3125 -2.9375 0.3125 0 0 Z " fill="#1CCCF6" transform="translate(343.9375,229.6875)"/>
<path d="M0 0 C3.4375 0.875 3.4375 0.875 5.4375 3.875 C5.67839355 4.78846191 5.91928711 5.70192383 6.16748047 6.64306641 C7.86016543 10.95059497 10.46759447 13.4085282 13.7578125 16.5859375 C14.68580154 17.50543686 14.68580154 17.50543686 15.63253784 18.44351196 C17.59996105 20.38864336 19.58086427 22.31936048 21.5625 24.25 C22.90325961 25.57068545 24.24311393 26.89229061 25.58203125 28.21484375 C28.85679984 31.44564044 32.14372592 34.66358611 35.4375 37.875 C34.06535861 41.4098154 32.53372421 44.484255 30.5 47.6875 C26.84655559 53.70546074 24.69934333 59.22075641 23.359375 66.125 C23.1850293 67.01703125 23.01068359 67.9090625 22.83105469 68.828125 C22.70118164 69.50359375 22.57130859 70.1790625 22.4375 70.875 C21.12555664 70.88958252 19.81361328 70.90416504 18.46191406 70.91918945 C13.59379843 70.97716742 8.72614559 71.05440064 3.85839844 71.13745117 C1.75170402 71.17070282 -0.35507954 71.198734 -2.46191406 71.22143555 C-5.49062075 71.25497683 -8.51851038 71.30729291 -11.546875 71.36328125 C-12.48867615 71.36967117 -13.43047729 71.3760611 -14.40081787 71.38264465 C-15.28142883 71.40243881 -16.16203979 71.42223297 -17.06933594 71.44262695 C-17.84210876 71.45373001 -18.61488159 71.46483307 -19.41107178 71.47627258 C-22.08376911 71.97160759 -23.43006863 73.23869357 -25.5625 74.875 C-28.6875 74.8125 -28.6875 74.8125 -31.5625 73.875 C-33.51481826 71.49826472 -33.60345569 70.30503475 -33.3125 67.25 C-32.5625 64.875 -32.5625 64.875 -30.5625 62.875 C-25.22916667 62.54166667 -25.22916667 62.54166667 -22.5625 63.875 C-22.5625 64.535 -22.5625 65.195 -22.5625 65.875 C-9.3625 65.875 3.8375 65.875 17.4375 65.875 C18.0975 62.575 18.7575 59.275 19.4375 55.875 C20.74113031 52.72848667 22.0443893 49.77703557 23.5625 46.75 C24.25453796 45.34560605 24.94572537 43.94079278 25.63623047 42.53564453 C26.23665365 41.31542969 26.83707682 40.09521484 27.4375 38.875 C23.87916451 35.19259423 20.30435379 31.52728948 16.71362305 27.87646484 C15.49579462 26.63357156 14.28250118 25.38621716 13.07397461 24.13427734 C11.33074188 22.33004223 9.5715482 20.54275673 7.80859375 18.7578125 C7.27600449 18.19941681 6.74341522 17.64102112 6.19468689 17.06570435 C2.50671209 13.37505118 -0.41991274 12.18156034 -5.5625 10.875 C-7.5625 7.875 -7.5625 7.875 -7.375 5.375 C-5.8969217 0.82706677 -4.92643015 -0.1728572 0 0 Z " fill="#1CCDF6" transform="translate(157.5625,230.125)"/>
<path d="M0 0 C1.875 1.0625 1.875 1.0625 3 3 C3.3125 6.5625 3.3125 6.5625 3 10 C2.34 10.66 1.68 11.32 1 12 C0.6706462 13.9368613 0.6706462 13.9368613 0.68115234 16.17431641 C0.66128265 17.03505768 0.64141296 17.89579895 0.62094116 18.78262329 C0.60938995 19.71287323 0.59783875 20.64312317 0.5859375 21.6015625 C0.56657135 22.55316254 0.5472052 23.50476257 0.5272522 24.48519897 C0.46735868 27.53170747 0.42103205 30.57825354 0.375 33.625 C0.33682921 35.6875167 0.29777802 37.7500173 0.2578125 39.8125 C0.16164914 44.87486966 0.07765437 49.93731395 0 55 C-1.21381348 55.31018066 -2.42762695 55.62036133 -3.67822266 55.93994141 C-5.29865877 56.36822467 -6.91893011 56.79713172 -8.5390625 57.2265625 C-9.73414429 57.52929077 -9.73414429 57.52929077 -10.95336914 57.83813477 C-17.68334744 59.64357095 -22.70511211 62.47779284 -28.3984375 66.5234375 C-31 68 -31 68 -32.96728516 67.80566406 C-35.47181896 66.81299513 -36.44003551 65.67891317 -38.125 63.5859375 C-42.50659736 58.35184385 -47.21430801 53.48926305 -52 48.625 C-52.86367187 47.72394531 -53.72734375 46.82289063 -54.6171875 45.89453125 C-59.23679614 41.21173647 -62.42702095 38.04414511 -69 37 C-71 35.75 -71 35.75 -72 34 C-71.875 30.9375 -71.875 30.9375 -71 28 C-68 26 -68 26 -64.4375 26.1875 C-61 27 -61 27 -59 30 C-58.73815918 30.93078369 -58.47631836 31.86156738 -58.20654297 32.82055664 C-56.75400677 36.64823348 -54.54870856 39.04588425 -51.6953125 41.87109375 C-51.17492401 42.39768082 -50.65453552 42.92426788 -50.11837769 43.46681213 C-49.02223406 44.57002534 -47.9209812 45.66818316 -46.81494141 46.76147461 C-45.12115393 48.4413144 -43.45285346 50.14390966 -41.78515625 51.84960938 C-40.71499313 52.92072298 -39.64342588 53.99043594 -38.5703125 55.05859375 C-38.07226105 55.56990341 -37.57420959 56.08121307 -37.06106567 56.60801697 C-35.49765482 58.18694917 -35.49765482 58.18694917 -33 60 C-30.83724771 60.05013011 -30.83724771 60.05013011 -29 59 C-27.89269531 58.4740625 -26.78539062 57.948125 -25.64453125 57.40625 C-23.73126878 56.46050081 -21.82433979 55.50611007 -19.92773438 54.52734375 C-16.34017601 52.77212072 -13.24357311 51.77684651 -9.2487793 51.40039062 C-8.44973679 51.32195923 -7.65069427 51.24352783 -6.82743835 51.16271973 C-6.2243837 51.10902222 -5.62132904 51.05532471 -5 51 C-5.06879874 45.50028186 -5.15672648 40.00132973 -5.26245117 34.50219727 C-5.29572002 32.63118986 -5.32374585 30.76008162 -5.34643555 28.88891602 C-5.37994588 26.20024617 -5.43225865 23.51250202 -5.48828125 20.82421875 C-5.49467117 19.98662521 -5.5010611 19.14903168 -5.50764465 18.28605652 C-5.62005429 13.85318189 -5.87057792 12.01658687 -9 9 C-9.39365568 5.85075452 -9.52854531 3.88090884 -7.875 1.125 C-5.11909116 -0.52854531 -3.14924548 -0.39365568 0 0 Z " fill="#1DD1F9" transform="translate(240,186)"/>
<path d="M0 0 C10.89 0 21.78 0 33 0 C33 1.65 33 3.3 33 5 C31.02 5 29.04 5 27 5 C27 9.29 27 13.58 27 18 C25.35 18 23.7 18 22 18 C22 13.71 22 9.42 22 5 C16.72 5 11.44 5 6 5 C6 5.99 6 6.98 6 8 C8.31 8 10.62 8 13 8 C13 9.32 13 10.64 13 12 C10.69 12 8.38 12 6 12 C6 13.98 6 15.96 6 18 C4.02 18 2.04 18 0 18 C0 12.06 0 6.12 0 0 Z " fill="#DBE0E9" transform="translate(244,279)"/>
<path d="M0 0 C13.43252354 -0.36970248 13.43252354 -0.36970248 15.97265625 1.28515625 C17.68278694 4.13970899 16.58223893 6.85590979 16 10 C16.33 10.33 16.66 10.66 17 11 C17.25 13.4375 17.25 13.4375 17 16 C13.2632157 18.49118953 11.25548181 18.2065226 6.8125 18.125 C4.564375 18.08375 2.31625 18.0425 0 18 C0 12.06 0 6.12 0 0 Z " fill="#D9DEE8" transform="translate(224,279)"/>
<path d="M0 0 C5.61 0 11.22 0 17 0 C17 1.32 17 2.64 17 4 C15.02 4 13.04 4 11 4 C11 8.29 11 12.58 11 17 C9.35 17 7.7 17 6 17 C6 12.71 6 8.42 6 4 C4.02 4 2.04 4 0 4 C0 2.68 0 1.36 0 0 Z " fill="#FCFCFC" transform="translate(260,280)"/>
<path d="M0 0 C3.4375 0.8125 3.4375 0.8125 5.4375 3.8125 C5.0625 6 5.0625 6 4.4375 7.8125 C3.7775 7.8125 3.1175 7.8125 2.4375 7.8125 C2.1075 9.1325 1.7775 10.4525 1.4375 11.8125 C-1.81165145 12.17351683 -3.1977257 12.06208242 -5.9375 10.1875 C-7.5625 7.8125 -7.5625 7.8125 -7.5 4.6875 C-6.07447293 0.31588366 -4.49409947 -0.23653155 0 0 Z " fill="#1BC6F1" transform="translate(175.5625,212.1875)"/>
<path d="M0 0 C2 0.125 2 0.125 4 1 C5.25 3.0625 5.25 3.0625 6 5 C5.01 6.485 5.01 6.485 4 8 C2.35 7.67 0.7 7.34 -1 7 C-1.625 4.625 -1.625 4.625 -2 2 C-1.34 1.34 -0.68 0.68 0 0 Z " fill="#04408F" transform="translate(342,232)"/>
<path d="M0 0 C1.67542976 0.28604898 3.34385343 0.61781233 5 1 C5 2.98 5 4.96 5 7 C2.625 7.625 2.625 7.625 0 8 C-0.66 7.34 -1.32 6.68 -2 6 C-1.44444444 1.44444444 -1.44444444 1.44444444 0 0 Z " fill="#033481" transform="translate(261,188)"/>
<path d="M0 0 C2.625 0.375 2.625 0.375 5 1 C5.625 2.875 5.625 2.875 6 5 C4 7 4 7 1.375 7.125 C0.59125 7.08375 -0.1925 7.0425 -1 7 C-1.625 4.625 -1.625 4.625 -2 2 C-1.34 1.34 -0.68 0.68 0 0 Z " fill="#023A8E" transform="translate(368,295)"/>
<path d="M0 0 C3.69230769 0.69230769 3.69230769 0.69230769 5 2 C5.04063832 3.66617115 5.042721 5.33388095 5 7 C2.625 7.625 2.625 7.625 0 8 C-0.66 7.34 -1.32 6.68 -2 6 C-1.44444444 1.44444444 -1.44444444 1.44444444 0 0 Z " fill="#12357B" transform="translate(156,215)"/>
<path d="M0 0 C2.125 0.375 2.125 0.375 4 1 C4.625 3.375 4.625 3.375 5 6 C4.34 6.66 3.68 7.32 3 8 C0.875 7.625 0.875 7.625 -1 7 C-1.625 4.625 -1.625 4.625 -2 2 C-1.34 1.34 -0.68 0.68 0 0 Z " fill="#022D78" transform="translate(155,232)"/>
<path d="M0 0 C1.2065625 0.0309375 1.2065625 0.0309375 2.4375 0.0625 C3.0625 2.4375 3.0625 2.4375 3.4375 5.0625 C2.7775 5.7225 2.1175 6.3825 1.4375 7.0625 C-1.1875 6.6875 -1.1875 6.6875 -3.5625 6.0625 C-3.605221 4.39638095 -3.60313832 2.72867115 -3.5625 1.0625 C-2.5625 0.0625 -2.5625 0.0625 0 0 Z " fill="#03317D" transform="translate(237.5625,188.9375)"/>
<path d="M0 0 C2.125 0.375 2.125 0.375 4 1 C4.38218767 2.65614657 4.71395102 4.32457024 5 6 C4 7 4 7 1.4375 7.0625 C0.2309375 7.0315625 0.2309375 7.0315625 -1 7 C-1.625 4.625 -1.625 4.625 -2 2 C-1.34 1.34 -0.68 0.68 0 0 Z " fill="#022A76" transform="translate(129,295)"/>
<path d="M0 0 C-0.33 1.98 -0.66 3.96 -1 6 C-2.65 5.67 -4.3 5.34 -6 5 C-6.33 3.35 -6.66 1.7 -7 0 C-4.3333581 -1.33332095 -2.83319697 -0.67102033 0 0 Z " fill="#0B3686" transform="translate(346,217)"/>
<path d="M0 0 C1.2065625 0.0309375 1.2065625 0.0309375 2.4375 0.0625 C3.0625 2.4375 3.0625 2.4375 3.4375 5.0625 C2.7775 5.7225 2.1175 6.3825 1.4375 7.0625 C-0.6875 6.6875 -0.6875 6.6875 -2.5625 6.0625 C-2.94468767 4.40635343 -3.27645102 2.73792976 -3.5625 1.0625 C-2.5625 0.0625 -2.5625 0.0625 0 0 Z " fill="#023585" transform="translate(325.5625,214.9375)"/>
<path d="M0 0 C2.125 0.375 2.125 0.375 4 1 C4.38218767 2.65614657 4.71395102 4.32457024 5 6 C4 7 4 7 1.4375 7.0625 C0.2309375 7.0315625 0.2309375 7.0315625 -1 7 C-1.625 4.625 -1.625 4.625 -2 2 C-1.34 1.34 -0.68 0.68 0 0 Z " fill="#032E79" transform="translate(173,214)"/>
<path d="M0 0 C0.66 0.33 1.32 0.66 2 1 C1.67 3.31 1.34 5.62 1 8 C1.99 8.66 2.98 9.32 4 10 C4.33 10.66 4.66 11.32 5 12 C2.125 11.75 2.125 11.75 -1 11 C-2.95231826 8.62326472 -3.04095569 7.43003475 -2.75 4.375 C-2 2 -2 2 0 0 Z " fill="#19BAE7" transform="translate(127,293)"/>
<path d="M0 0 C1.2065625 0.0309375 1.2065625 0.0309375 2.4375 0.0625 C2.81968767 1.71864657 3.15145102 3.38707024 3.4375 5.0625 C2.4375 6.0625 2.4375 6.0625 -0.125 6.125 C-1.3315625 6.0940625 -1.3315625 6.0940625 -2.5625 6.0625 C-2.94468767 4.40635343 -3.27645102 2.73792976 -3.5625 1.0625 C-2.5625 0.0625 -2.5625 0.0625 0 0 Z " fill="#022674" transform="translate(250.5625,177.9375)"/>
<path d="M0 0 C3.4375 0.1875 3.4375 0.1875 7 1 C8.4375 3.0625 8.4375 3.0625 9 5 C8.34 5 7.68 5 7 5 C6.67 5.99 6.34 6.98 6 8 C5.34 6.35 4.68 4.7 4 3 C3.01 3 2.02 3 1 3 C0.34 3.66 -0.32 4.32 -1 5 C-1.66 5 -2.32 5 -3 5 C-1.125 1.125 -1.125 1.125 0 0 Z " fill="#A6DBEA" transform="translate(155,213)"/>
<path d="M0 0 C3.125 0.25 3.125 0.25 5 1.625 C6.125 3.25 6.125 3.25 6.125 5.25 C4.0942584 4.7423146 2.10606451 4.24349093 0.125 3.5625 C-2.46416878 3.15794238 -3.67760379 3.91586659 -5.875 5.25 C-3.48114934 0.30270864 -3.48114934 0.30270864 0 0 Z " fill="#1AC4F0" transform="translate(343.875,229.75)"/>
<path d="M0 0 C2.375 0.3125 2.375 0.3125 5 1 C7.1519437 4.22791555 7.20086443 5.28400809 7 9 C6.01 8.67 5.02 8.34 4 8 C3.3125 5.9375 3.3125 5.9375 3 4 C1.68 3.67 0.36 3.34 -1 3 C-0.67 2.01 -0.34 1.02 0 0 Z " fill="#19C0ED" transform="translate(325,212)"/>
<path d="M0 0 C3.125 0.3125 3.125 0.3125 5 2.3125 C5.556875 3.3025 5.556875 3.3025 6.125 4.3125 C5.465 4.3125 4.805 4.3125 4.125 4.3125 C3.795 5.6325 3.465 6.9525 3.125 8.3125 C2.795 6.6625 2.465 5.0125 2.125 3.3125 C-0.63776177 3.83518466 -3.2010876 4.42119587 -5.875 5.3125 C-3.48787935 0.37911732 -3.48787935 0.37911732 0 0 Z " fill="#1AC0EC" transform="translate(262.875,185.6875)"/>
<path d="M0 0 C0.268125 0.94875 0.53625 1.8975 0.8125 2.875 C1.74986588 6.25267273 1.74986588 6.25267273 5 8 C3.35 8.33 1.7 8.66 0 9 C-2.62386487 5.93882432 -3 5.26826873 -3 1 C-1 0 -1 0 0 0 Z " fill="#1AC3EE" transform="translate(153,233)"/>
<path d="M0 0 C3.375 0.3125 3.375 0.3125 7 1 C9 4 9 4 8.625 6.1875 C8.41875 6.785625 8.2125 7.38375 8 8 C6 7 6 7 5 4 C4.34 3.835 3.68 3.67 3 3.5 C2.34 3.335 1.68 3.17 1 3 C0.67 2.01 0.34 1.02 0 0 Z " fill="#A0D5E8" transform="translate(340,213)"/>
<path d="M0 0 C1.39431504 2.78863007 1.25660094 4.92078868 1 8 C0.01 8.66 -0.98 9.32 -2 10 C-3.32 9.34 -4.64 8.68 -6 8 C-4.68 7.67 -3.36 7.34 -2 7 C-2 5.68 -2 4.36 -2 3 C-3.65 2.67 -5.3 2.34 -7 2 C-7 1.67 -7 1.34 -7 1 C-2.25 0 -2.25 0 0 0 Z " fill="#94C7DE" transform="translate(255,176)"/>
<path d="M0 0 C0.33 0 0.66 0 1 0 C0.25 6.75 0.25 6.75 -2 9 C-5.625 9.125 -5.625 9.125 -9 9 C-6.47043472 5.9083091 -3.77545388 5.09068668 0 4 C0 2.68 0 1.36 0 0 Z " fill="#14A6DB" transform="translate(375,296)"/>
<path d="M0 0 C1.4540625 0.0309375 1.4540625 0.0309375 2.9375 0.0625 C2.9375 0.7225 2.9375 1.3825 2.9375 2.0625 C1.2875 2.0625 -0.3625 2.0625 -2.0625 2.0625 C-2.3925 3.7125 -2.7225 5.3625 -3.0625 7.0625 C-4.0525 6.4025 -5.0425 5.7425 -6.0625 5.0625 C-3.64893617 0.07446809 -3.64893617 0.07446809 0 0 Z " fill="#AADFED" transform="translate(250.0625,174.9375)"/>
<path d="M0 0 C-0.33 0.99 -0.66 1.98 -1 3 C-2.33076989 3.34342449 -3.66431979 3.67619874 -5 4 C-5.99 5.485 -5.99 5.485 -7 7 C-7.66 5.68 -8.32 4.36 -9 3 C-6.38997624 -0.48003168 -4.1689578 -0.27793052 0 0 Z " fill="#17B3E2" transform="translate(240,186)"/>
<path d="M0 0 C0.99 0.33 1.98 0.66 3 1 C3.33 2.98 3.66 4.96 4 7 C3.01 6.67 2.02 6.34 1 6 C-0.1875 3.4375 -0.1875 3.4375 -1 1 C-0.67 0.67 -0.34 0.34 0 0 Z " fill="#17B0DF" transform="translate(177,213)"/>
</svg>
